<svg width="28" height="28" viewBox="0 0 28 28" fill="none" xmlns="http://www.w3.org/2000/svg">
<path d="M14.0006 2.33398C7.56065 2.33398 2.33398 7.56065 2.33398 14.0006C2.33398 20.4406 7.56065 25.6673 14.0006 25.6673C20.4406 25.6673 25.6673 20.4406 25.6673 14.0006C25.6673 7.56065 20.4406 2.33398 14.0006 2.33398ZM19.414 10.2673C19.239 12.1106 18.4806 16.5906 18.0956 18.6556C17.9323 19.5306 17.6056 19.8223 17.3023 19.8573C16.6256 19.9156 16.1123 19.414 15.459 18.9823C14.4323 18.3056 13.849 17.8856 12.8573 17.2323C11.7023 16.474 12.449 16.054 13.114 15.3773C13.289 15.2023 16.2756 12.484 16.334 12.239C16.3421 12.2019 16.341 12.1634 16.3308 12.1268C16.3207 12.0902 16.3017 12.0566 16.2756 12.029C16.2056 11.9707 16.1123 11.994 16.0306 12.0056C15.9256 12.029 14.2923 13.114 11.1073 15.2606C10.6407 15.5756 10.2206 15.739 9.84732 15.7273C9.42732 15.7156 8.63398 15.494 8.03898 15.2956C7.30398 15.0623 6.73232 14.934 6.77898 14.5256C6.80232 14.3156 7.09398 14.1056 7.64232 13.884C11.049 12.4023 13.3123 11.4223 14.444 10.9557C17.6873 9.60232 18.3523 9.36898 18.7956 9.36898C18.889 9.36898 19.1106 9.39232 19.2506 9.50898C19.3673 9.60232 19.4023 9.73065 19.414 9.82398C19.4023 9.89398 19.4256 10.104 19.414 10.2673Z" fill="white"/>
</svg>
